<?xml version="1.0" encoding="UTF-8"?>
<svg id="Capa_1" data-name="Capa 1" xmlns="http://www.w3.org/2000/svg" viewBox="0 0 512 512">
  <defs>
    <style>
      .cls-1 {
        fill: #fff;
        stroke-width: 0px;
      }
    </style>
  </defs>
  <path class="cls-1" d="m381.34,284.8c-3.04,41.03-29.45,79.33-72.7,97.69-62.71,26.62-136.99.58-165.19-58.25-6.17-12.82-9.61-26.16-10.58-39.44H17.43c.15,7.16.31,14.31.46,21.5.93.24,1.72.46,2.52.64,16.15,3.7,32.3,7.4,48.46,11.07,1.48.34,2.48.83,2.98,2.34,1.58,4.8,3.16,9.62,5.04,14.32,4.19,10.47,9.27,20.56,15.63,30.05,1.1,1.65,1.2,2.91.12,4.63-8.27,13.26-16.4,26.6-24.66,39.87-1.02,1.63-.97,2.66.58,3.94,2.86,2.35,5.55,4.88,8.3,7.35,12.75,11.42,25.51,22.83,38.22,34.29,3.19-2.19,6.62-4.06,10-5.98,11.41-6.46,22.85-12.88,34.24-19.37,1.96-1.12,3.56-1.23,5.68-.12,15.01,7.83,30.95,13.68,47.9,16.84,3.87,16.16,8.92,32.05,13.49,48.05.41,1.43,1.13,1.82,2.6,1.78,4.56-.14,9.13-.19,13.69-.27,16.35-.3,32.71-.62,49.06-.85,1.77-.03,2.44-.57,2.79-2.14.72-3.26,1.68-6.48,2.53-9.71,3.1-11.82,6.22-23.63,9.26-35.46.45-1.76,1.25-2.64,3.28-3.16,5.04-1.3,9.99-2.92,14.92-4.55,11.01-3.64,21.4-8.5,31.38-14.13,1.65-.93,3.02-1.01,4.79-.06,8.16,4.34,16.42,8.53,24.64,12.78,7.05,3.64,14.09,7.28,21.29,11,15.51-15.01,30.93-29.94,46.47-44.99-1.97-2.93-3.78-5.61-5.58-8.29-7.86-11.67-15.64-23.39-23.67-34.97,8.83-14.18,15.49-29.21,19.62-45.12.82-3.17,2.04-5.18,5.74-5.47,1.3-.1,2.55-.67,3.82-1.01,14.04-3.76,28.08-7.56,42.15-11.21,1.86-.48,2.3-1.22,2.26-2.87-.09-3.57-.17-7.13-.26-10.7h-115.82Z"/>
  <path class="cls-1" d="m231.77,43.08l5.91,74.23c1.26,24.58,46.36,25.92,48.57,0l5.13-75.02c-.23-2.96-1.16-9.1-5.65-14.93-8.31-10.77-21.71-11.31-23.63-11.36-1.75-.03-15.5-.07-24.23,10.74-5.23,6.47-5.96,13.49-6.09,16.34Z"/>
  <path class="cls-1" d="m225.67,307.45c-16.6-19.62-33.21-39.24-49.81-58.86l-2.65-3.14-2.08-2.44s-.02-.03-.03-.05c-4.38-6.43-2.46-13.68-1.75-15.85.55-1.69,1.34-3.29,2.33-4.79,2.93-4.43,7.64-7.78,13.14-8.7.54-.09,1.07-.16,1.62-.2,7.96-.6,13.44,4.24,14.34,5.09.03.02.05.03.06.05l2.68,3.18s.03.05.05.06l28.33,33.46,5.31,6.27,4.22,4.99,4.81,5.67"/>
  <path class="cls-1" d="m257.45,278.78c.29-.21.58-.45.81-.75,1.23-1.62,2.45-3.24,3.68-4.86l2.46-3.24,1.38-1.81,5.77-7.62.02-.02,3.89-5.13,54.8-72.31,39.72-52.42,17.25-22.74c.27-.39.47-.65.56-.77.03-.03.06-.08.09-.11,4.9-6.02,12.05-6.58,14-6.66,2.17-.08,7.72.08,12.72,4.11.03.01.07.04.1.07.39.33.77.66,1.12.99,5.29,5.09,5.74,11.67,5.79,12.78.1,1.71.13,6.97-3.49,11.96-.03.05-.1.15-.22.29l-19.41,25.61-41.45,54.73-25.14,33.15-15.23,20.12v.02s-5.1,6.7-5.1,6.7l-3.19,4.2-3.47,4.58-3.23,4.27-3.01,3.97-14.45,19.07c-5.54,7.32-11.1,14.64-16.64,21.96-3.68,4.86-9.97,6.37-15.25,4.35-2.54-.97-4.12-2.51-4.96-3.35-4.4-4.42-10.03-10.12-16.61-16.96"/>
  <path class="cls-1" d="m106.46,125.2l41.62,43.25c12.2,13.4,40.26-8.98,28.52-24.31l-34.37-47.96c-1.62-1.69-5.25-4.96-10.89-6.35-10.42-2.56-18.82,3.54-20.01,4.43-1.08.82-9.44,7.39-9.33,18.12.06,6.43,3.13,11.04,4.47,12.83Z"/>
  <path class="cls-1" d="m49.59,239.72l60.84,8.07c16.78,1.92,26.32-31.02,6.57-36.86l-58.17-16.28c-2.37-.31-7.35-.63-12.68,1.79-9.85,4.48-12.49,14.5-12.84,15.94-.31,1.31-2.62,11.68,4.44,20.05,4.23,5.01,9.63,6.73,11.84,7.3Z"/>
  <path class="cls-1" d="m465.03,239.72l-62.47,8.29c-14.91,1.77-24.83-32.05-4.94-37.08l58.17-16.28c2.37-.31,7.35-.63,12.68,1.79,9.85,4.48,12.49,14.5,12.84,15.94.31,1.31,2.62,11.68-4.44,20.05-4.23,5.01-9.63,6.73-11.84,7.3Z"/>
</svg>