<?xml version="1.0" encoding="UTF-8"?>
<svg id="Capa_1" data-name="Capa 1" xmlns="http://www.w3.org/2000/svg" xmlns:xlink="http://www.w3.org/1999/xlink" viewBox="0 0 512 512">
  <defs>
    <clipPath id="clippath">
      <rect x="52.03" y="410.68" width="401.58" height="14.62" fill="none" stroke-width="0"/>
    </clipPath>
    <clipPath id="clippath-1">
      <rect x="52.03" y="410.68" width="401.58" height="14.62" fill="none" stroke-width="0"/>
    </clipPath>
  </defs>
  <path d="m351.39,233.94c-2.41,32.48-23.31,62.81-57.55,77.34-49.65,21.08-108.45.46-130.77-46.12-4.88-10.15-7.61-20.71-8.38-31.22H63.29c.12,5.66.24,11.33.37,17.02.73.19,1.36.36,1.99.51,12.79,2.93,25.57,5.86,38.37,8.76,1.17.27,1.96.66,2.36,1.85,1.25,3.8,2.5,7.62,3.99,11.34,3.32,8.29,7.34,16.28,12.37,23.79.87,1.3.95,2.3.1,3.67-6.55,10.5-12.99,21.06-19.53,31.56-.8,1.29-.77,2.11.46,3.12,2.27,1.86,4.4,3.86,6.57,5.82,10.09,9.04,20.2,18.07,30.26,27.15,2.52-1.73,5.24-3.21,7.92-4.73,9.04-5.11,18.09-10.19,27.11-15.34,1.55-.89,2.82-.97,4.5-.1,11.88,6.2,24.5,10.83,37.92,13.33,3.06,12.79,7.06,25.37,10.68,38.04.32,1.13.9,1.44,2.06,1.41,3.61-.11,7.23-.15,10.84-.21,12.95-.24,25.89-.49,38.84-.68,1.4-.02,1.94-.45,2.21-1.7.57-2.58,1.33-5.13,2-7.69,2.45-9.36,4.92-18.71,7.33-28.07.36-1.39.99-2.09,2.59-2.51,3.99-1.03,7.91-2.31,11.81-3.6,8.72-2.88,16.94-6.73,24.85-11.18,1.31-.74,2.39-.8,3.8-.05,6.46,3.44,13,6.75,19.5,10.12,5.58,2.88,11.16,5.77,16.86,8.71,12.28-11.89,24.48-23.7,36.79-35.62-1.56-2.32-2.99-4.44-4.42-6.56-6.22-9.24-12.38-18.52-18.74-27.68,6.99-11.23,12.26-23.13,15.53-35.72.65-2.51,1.61-4.1,4.54-4.33,1.03-.08,2.02-.53,3.03-.8,11.12-2.97,22.23-5.98,33.37-8.88,1.47-.38,1.82-.96,1.79-2.27-.07-2.82-.14-5.65-.21-8.47h-91.69Z" fill="#1e5671" stroke-width="0"/>
  <path d="m232.97,42.57l4.68,58.76c1,19.46,36.7,20.52,38.45,0l4.06-59.39c-.18-2.35-.92-7.2-4.48-11.82-6.58-8.53-17.19-8.95-18.71-8.99-1.38-.03-12.27-.05-19.18,8.5-4.14,5.12-4.72,10.68-4.82,12.93Z" fill="#1e5671" stroke-width="0"/>
  <path d="m228.15,251.87c-13.15-15.53-26.29-31.07-39.44-46.6l-2.1-2.48-1.65-1.93s-.01-.02-.03-.04c-3.47-5.09-1.95-10.83-1.38-12.55.44-1.33,1.06-2.61,1.85-3.79,2.32-3.5,6.05-6.16,10.4-6.89.42-.07.85-.12,1.29-.16,6.3-.47,10.64,3.36,11.35,4.03.03.01.04.02.05.04l2.12,2.52s.02.04.04.05l22.43,26.49,4.2,4.96,3.34,3.95,3.8,4.49" fill="#d6885b" stroke-width="0"/>
  <path d="m253.3,229.17c.23-.17.46-.35.64-.59.97-1.28,1.94-2.56,2.91-3.84l1.95-2.56,1.09-1.44,4.57-6.03h.01s3.08-4.08,3.08-4.08l43.38-57.25,31.44-41.5,13.66-18c.21-.31.37-.52.45-.61.02-.03.05-.06.07-.09,3.88-4.76,9.54-5.21,11.09-5.27,1.72-.07,6.11.07,10.07,3.26.03.01.05.04.08.06.31.26.61.52.89.78,4.19,4.03,4.54,9.24,4.58,10.11.08,1.36.1,5.51-2.77,9.47-.02.04-.08.12-.18.23l-15.37,20.28-32.82,43.32-19.9,26.24-12.06,15.93h-.01s-4.03,5.32-4.03,5.32l-2.52,3.33-2.75,3.62-2.56,3.38-2.38,3.14-11.44,15.1c-4.39,5.79-8.78,11.59-13.18,17.38-2.92,3.85-7.89,5.04-12.08,3.44-2.01-.77-3.26-1.99-3.92-2.65-3.48-3.5-7.94-8.01-13.15-13.43" fill="#d57825" stroke-width="0"/>
  <path d="m133.77,107.58l32.95,34.24c9.66,10.61,31.87-7.11,22.58-19.25l-27.21-37.97c-1.28-1.33-4.16-3.93-8.62-5.03-8.25-2.02-14.9,2.8-15.84,3.51-.85.65-7.47,5.85-7.39,14.34.05,5.09,2.48,8.74,3.54,10.15Z" fill="#1e5671" stroke-width="0"/>
  <path d="m88.75,198.25l48.17,6.39c13.28,1.52,20.84-24.55,5.2-29.18l-46.05-12.89c-1.88-.25-5.82-.5-10.04,1.42-7.8,3.55-9.89,11.48-10.17,12.62-.25,1.04-2.07,9.24,3.51,15.87,3.35,3.97,7.62,5.33,9.38,5.78Z" fill="#1e5671" stroke-width="0"/>
  <path d="m417.64,198.25l-49.45,6.56c-11.8,1.41-19.66-25.37-3.91-29.35l46.05-12.89c1.88-.25,5.82-.5,10.04,1.42,7.8,3.55,9.89,11.48,10.17,12.62.25,1.04,2.07,9.24-3.51,15.87-3.35,3.97-7.62,5.33-9.38,5.78Z" fill="#1e5671" stroke-width="0"/>
  <g>
    <path d="m79.94,489.79v-50.14h34.37v9.69h-22.64v10.36h20.84v9.49h-20.84v10.9h22.6v9.69h-34.34Z" fill="#1f5069" stroke-width="0"/>
    <path d="m140.57,490.46c-4.12,0-7.71-.63-10.77-1.88s-5.44-3.16-7.15-5.72c-1.71-2.56-2.59-5.77-2.66-9.62h11.27c.11,1.62.55,2.97,1.31,4.07.76,1.1,1.82,1.92,3.16,2.47,1.34.55,2.91.82,4.7.82,1.62,0,3.01-.22,4.19-.67,1.17-.45,2.08-1.08,2.71-1.88.63-.81.95-1.75.95-2.83,0-.96-.29-1.78-.88-2.46-.59-.67-1.47-1.27-2.64-1.78-1.17-.52-2.67-.98-4.49-1.38l-5.25-1.25c-4.28-.99-7.63-2.6-10.07-4.85-2.44-2.24-3.66-5.25-3.66-9.02,0-3.1.83-5.81,2.49-8.14,1.66-2.33,3.94-4.14,6.83-5.43,2.89-1.29,6.21-1.93,9.96-1.93s7.16.66,9.97,1.97c2.81,1.31,5,3.14,6.55,5.49,1.55,2.34,2.35,5.06,2.39,8.16h-11.27c-.16-1.82-.89-3.23-2.19-4.24-1.31-1.01-3.14-1.51-5.48-1.51-1.55,0-2.86.21-3.92.62-1.06.42-1.86.99-2.39,1.72-.53.73-.8,1.56-.8,2.51,0,1.03.3,1.9.9,2.61.6.71,1.45,1.3,2.56,1.77,1.11.47,2.39.88,3.86,1.21l4.29,1.01c2.39.52,4.53,1.22,6.4,2.1,1.87.89,3.46,1.95,4.75,3.18,1.3,1.23,2.28,2.66,2.96,4.27.68,1.62,1.01,3.42,1.01,5.42,0,3.16-.78,5.88-2.34,8.16-1.56,2.28-3.8,4.02-6.71,5.23s-6.42,1.82-10.52,1.82Z" fill="#1f5069" stroke-width="0"/>
    <path d="m178.13,439.65v50.14h-11.73v-50.14h11.73Z" fill="#1f5069" stroke-width="0"/>
  </g>
  <g>
    <path d="m193.06,489.79v-50.14h17.75c3.81,0,6.99.72,9.54,2.15,2.55,1.44,4.45,3.38,5.72,5.82,1.26,2.45,1.9,5.22,1.9,8.31s-.64,5.87-1.91,8.33-3.19,4.4-5.73,5.82c-2.55,1.42-5.74,2.14-9.57,2.14h-12.13v-6.49h11.4c2.44,0,4.41-.43,5.92-1.28,1.51-.85,2.61-2.02,3.31-3.5.7-1.48,1.05-3.15,1.05-5.01s-.35-3.56-1.05-5.03-1.81-2.62-3.32-3.45c-1.52-.83-3.51-1.25-5.97-1.25h-9.31v43.58h-7.58Z" fill="#c2722e" stroke-width="0"/>
    <path d="m243.48,439.65v50.14h-7.31v-50.14h7.31Z" fill="#c2722e" stroke-width="0"/>
    <path d="m263.73,490.63c-2.35,0-4.48-.44-6.38-1.33-1.91-.89-3.41-2.18-4.52-3.89-1.11-1.7-1.66-3.79-1.66-6.26,0-2.13.4-3.88,1.21-5.25.81-1.37,1.91-2.46,3.29-3.26,1.38-.81,2.93-1.41,4.62-1.82s3.42-.71,5.17-.91c2.19-.27,3.98-.49,5.35-.66,1.37-.17,2.39-.45,3.04-.84.65-.39.98-1.03.98-1.9v-.2c0-1.41-.27-2.6-.8-3.57-.53-.96-1.32-1.71-2.38-2.24-1.05-.53-2.37-.79-3.94-.79s-3.01.25-4.17.76-2.11,1.15-2.83,1.94-1.26,1.6-1.61,2.46l-6.88-1.82c.84-2.24,2.05-4.05,3.62-5.42,1.57-1.37,3.38-2.37,5.42-2.99,2.04-.63,4.14-.94,6.32-.94,1.51,0,3.1.18,4.79.54,1.68.36,3.27,1.01,4.75,1.95,1.48.94,2.69,2.27,3.62,3.97.93,1.71,1.4,3.93,1.4,6.66v24.97h-7.08v-5.15h-.37c-.49.96-1.21,1.91-2.16,2.83-.95.92-2.16,1.68-3.61,2.27-1.45.59-3.19.89-5.2.89Zm1.63-5.96c1.99,0,3.7-.39,5.12-1.18,1.42-.79,2.5-1.83,3.26-3.13.75-1.3,1.13-2.68,1.13-4.14v-4.81c-.27.27-.77.51-1.51.72-.74.21-1.59.4-2.54.57-.95.17-1.87.31-2.76.42-.89.11-1.62.2-2.19.27-1.37.18-2.63.48-3.77.91-1.14.43-2.05,1.03-2.73,1.82-.68.79-1.01,1.83-1.01,3.13,0,1.19.3,2.19.91,3,.61.81,1.43,1.41,2.48,1.82,1.04.4,2.25.61,3.62.61Z" fill="#c2722e" stroke-width="0"/>
    <path d="m299.3,467.51v22.28h-7.31v-37.62h6.98l.07,9.22h-.76c1.09-3.36,2.66-5.82,4.72-7.37,2.06-1.55,4.55-2.32,7.48-2.32,2.53,0,4.73.54,6.62,1.62,1.88,1.08,3.36,2.66,4.42,4.76,1.06,2.1,1.6,4.71,1.6,7.82v23.89h-7.31v-22.98c0-2.71-.7-4.83-2.09-6.36s-3.31-2.29-5.75-2.29c-1.64,0-3.11.36-4.42,1.09-1.31.73-2.34,1.79-3.09,3.18-.75,1.39-1.13,3.08-1.13,5.08Z" fill="#c2722e" stroke-width="0"/>
    <path d="m340.25,467.51v22.28h-7.31v-37.62h6.98l.07,9.22h-.76c1.09-3.36,2.66-5.82,4.72-7.37,2.06-1.55,4.55-2.32,7.48-2.32,2.53,0,4.73.54,6.62,1.62,1.88,1.08,3.36,2.66,4.42,4.76,1.06,2.1,1.6,4.71,1.6,7.82v23.89h-7.31v-22.98c0-2.71-.7-4.83-2.09-6.36s-3.31-2.29-5.75-2.29c-1.64,0-3.11.36-4.42,1.09-1.31.73-2.34,1.79-3.09,3.18-.75,1.39-1.13,3.08-1.13,5.08Z" fill="#c2722e" stroke-width="0"/>
    <path d="m389.91,490.56c-3.66,0-6.81-.8-9.47-2.39-2.66-1.59-4.7-3.84-6.13-6.73-1.43-2.89-2.14-6.29-2.14-10.2s.7-7.26,2.11-10.2c1.41-2.94,3.4-5.23,5.97-6.88,2.57-1.65,5.58-2.47,9.04-2.47,2.13,0,4.18.35,6.15,1.06,1.97.71,3.74,1.81,5.32,3.31,1.57,1.5,2.82,3.45,3.74,5.84.92,2.39,1.38,5.29,1.38,8.7v2.62h-29.62v-5.52h25.86l-3.42,1.82c0-2.31-.35-4.35-1.06-6.11-.71-1.76-1.76-3.13-3.14-4.12-1.38-.99-3.12-1.48-5.2-1.48s-3.82.5-5.29,1.51c-1.46,1.01-2.58,2.34-3.34,3.99s-1.15,3.45-1.15,5.4v3.77c0,2.58.44,4.76,1.31,6.54.88,1.78,2.1,3.13,3.67,4.04,1.57.91,3.4,1.36,5.48,1.36,1.37,0,2.61-.2,3.72-.59,1.11-.39,2.07-.99,2.88-1.78s1.42-1.78,1.85-2.94l6.88,1.65c-.6,1.93-1.6,3.63-3.01,5.12-1.41,1.48-3.16,2.63-5.25,3.45-2.09.82-4.47,1.23-7.13,1.23Z" fill="#c2722e" stroke-width="0"/>
    <path d="m413.88,489.79v-37.62h7.08v6.06h.4c.69-2.06,1.88-3.68,3.59-4.85,1.71-1.17,3.65-1.75,5.82-1.75.47,0,1,.02,1.6.05.6.03,1.1.08,1.5.15v7.07c-.27-.09-.78-.18-1.53-.27-.75-.09-1.52-.13-2.29-.13-1.68,0-3.2.36-4.55,1.08-1.35.72-2.4,1.71-3.16,2.98-.75,1.27-1.13,2.73-1.13,4.39v22.85h-7.31Z" fill="#c2722e" stroke-width="0"/>
  </g>
  <g clip-path="url(#clippath)">
    <g clip-path="url(#clippath-1)">
      <line x1="453.61" y1="422.12" x2="52.03" y2="422.12" fill="none" stroke="#86888e" stroke-miterlimit="3.86" stroke-width="5.73"/>
    </g>
  </g>
</svg>